HIERARCHY
ROOT Hips
{
	OFFSET 0.000000 0.000000 0.000000 
	CHANNELS 6 Xposition Yposition Zposition Zrotation Yrotation Xrotation
	JOINT LeftUpLeg
	{
		OFFSET 1.363060 -1.794630 0.839290 
		CHANNELS 3 Zrotation Yrotation Xrotation
		JOINT LeftLeg
		{
			OFFSET 2.448110 -6.726130 0.000000 
			CHANNELS 3 Zrotation Yrotation Xrotation
			JOINT LeftFoot
			{
				OFFSET 2.562200 -7.039590 0.000000 
				CHANNELS 3 Zrotation Yrotation Xrotation
				JOINT LeftToeBase
				{
					OFFSET 0.157640 -0.433110 2.322550 
					CHANNELS 3 Zrotation Yrotation Xrotation
					End Site
					{
						OFFSET 0.000000 0.000000 0.000000 
					}
				}
			}
		}
	}
	JOINT RightUpLeg
	{
		OFFSET -1.305520 -1.794630 0.839290 
		CHANNELS 3 Zrotation Yrotation Xrotation
		JOINT RightLeg
		{
			OFFSET -2.542530 -6.985550 0.000000 
			CHANNELS 3 Zrotation Yrotation Xrotation
			JOINT RightFoot
			{
				OFFSET -2.568260 -7.056230 0.000000 
				CHANNELS 3 Zrotation Yrotation Xrotation
				JOINT RightToeBase
				{
					OFFSET -0.164730 -0.452590 2.363150 
					CHANNELS 3 Zrotation Yrotation Xrotation
					End Site
					{
						OFFSET 0.000000 0.000000 0.000000 
					}
				}
			}
		}
	}
	JOINT Spine
	{
		OFFSET 0.028270 2.035590 -0.193380 
		CHANNELS 3 Zrotation Yrotation Xrotation
		JOINT Spine1
		{
			OFFSET 0.056720 2.048850 -0.042750 
			CHANNELS 3 Zrotation Yrotation Xrotation
			JOINT Neck1
			{
				OFFSET -0.054170 1.746240 0.172020 
				CHANNELS 3 Zrotation Yrotation Xrotation
				JOINT Head
				{
					OFFSET 0.104070 1.761360 -0.123970 
					CHANNELS 3 Zrotation Yrotation Xrotation
					End Site
					{
						OFFSET 0.000000 0.000000 0.000000 
					}
				}
			}
			JOINT LeftArm
			{
				OFFSET 3.362410 1.200890 -0.311210 
				CHANNELS 3 Zrotation Yrotation Xrotation
				JOINT LeftForeArm
				{
					OFFSET 4.983000 -0.000000 -0.000000 
					CHANNELS 3 Zrotation Yrotation Xrotation
					JOINT LeftHand
					{
						OFFSET 3.483560 -0.000000 -0.000000 
						CHANNELS 3 Zrotation Yrotation Xrotation
						JOINT LeftHandIndex1
						{
							OFFSET 0.715260 -0.000000 -0.000000 
							CHANNELS 3 Zrotation Yrotation Xrotation
							End Site
							{
								OFFSET 0.000000 0.000000 0.000000 
							}
						}
					}
				}
			}
			JOINT RightArm
			{
				OFFSET -3.136600 1.374050 -0.404650 
				CHANNELS 3 Zrotation Yrotation Xrotation
				JOINT RightForeArm
				{
					OFFSET -5.241900 -0.000000 -0.000000 
					CHANNELS 3 Zrotation Yrotation Xrotation
					JOINT RightHand
					{
						OFFSET -3.444170 -0.000000 -0.000000 
						CHANNELS 3 Zrotation Yrotation Xrotation
						JOINT RightHandIndex1
						{
							OFFSET -0.622530 -0.000000 -0.000000 
							CHANNELS 3 Zrotation Yrotation Xrotation
							End Site
							{
								OFFSET 0.000000 0.000000 0.000000 
							}
						}
					}
				}
			}
		}
	}
}
MOTION
Frames: 7
Frame Time: 0.041667
0.813413 26.778101 -15.818236 0.333162 -3.978204 5.518504 -19.794684 -5.439297 -18.646129 3.943870 11.565452 36.108907 2.226279 2.003975 30.390598 0.000800 0.177600 0.488000 26.662406 -1.246958 -21.914228 -3.953008 -10.220853 31.709174 0.530422 -17.257623 19.991900 -0.534700 -4.685300 13.013100 0.930431 4.014985 -0.733419 0.912824 2.379196 -8.317251 5.730986 -3.995833 10.461457 3.926800 -2.168100 7.617800 -83.850895 1.659802 6.258500 13.390095 -23.721960 -3.053962 -1.526036 -2.053893 3.228398 -7.125000 0.000000 0.000000 82.803596 -0.464117 -19.734133 -10.825898 15.825925 -1.483331 1.940981 -0.645330 6.978253 7.125000 0.000000 0.000000 
0.808411 26.820912 -15.803432 0.402214 -3.741295 5.341262 -19.809153 -5.567736 -18.675575 3.875497 11.482660 35.797033 2.034134 2.323547 29.307397 0.004300 0.423800 1.164400 26.607681 -1.479297 -21.612175 -3.818171 -9.985594 30.948580 0.476497 -16.994586 20.200235 -0.431700 -4.216300 11.685900 0.905804 3.901042 -0.592628 0.743996 2.312529 -8.095598 5.568774 -4.046421 10.496381 3.793300 -2.171000 7.788100 -84.057873 1.012964 5.813008 12.357933 -21.999614 -2.489668 -1.528152 -2.185431 2.381578 -7.125000 0.000000 0.000000 83.145220 -0.378944 -21.456703 -10.544273 15.417586 -1.392139 1.920169 -0.651065 6.411323 7.125000 0.000000 0.000000 
0.802410 26.848219 -15.782426 0.492433 -3.397715 5.121873 -19.859281 -5.782312 -18.583304 3.774064 11.354665 35.340067 1.884943 2.507909 28.432559 0.005000 0.454700 1.249300 26.479121 -1.609812 -21.071639 -3.681932 -9.726962 30.115633 0.531760 -17.333740 20.229658 -0.519900 -4.621200 12.831300 1.027328 3.702635 -0.326097 1.000418 2.214452 -7.550536 5.649840 -4.017997 10.720957 3.826500 -2.135000 8.171300 -84.699301 0.183664 5.346981 11.546118 -20.571096 -2.059280 -1.539722 -2.303862 1.531950 -7.125000 0.000000 0.000000 83.062409 -0.310472 -21.277950 -10.463490 15.282748 -1.363276 1.904812 -0.604621 5.047373 7.125000 0.000000 0.000000 
0.794908 26.864824 -15.757920 0.595477 -3.258275 5.014316 -19.959330 -5.878893 -18.515679 3.649952 11.191742 34.791499 1.709975 2.539838 27.302580 0.000600 -0.158100 -0.434300 26.300606 -1.521704 -20.585254 -3.541523 -9.453544 29.241179 0.477911 -17.319190 20.672099 -0.600000 -4.958500 13.790300 0.979025 3.697808 -0.468395 0.885243 2.210113 -7.967807 5.843225 -4.110580 10.635275 3.859000 -2.156900 8.080800 -84.731040 0.580644 4.708587 10.730589 -19.148803 -1.723256 -1.563638 -2.165846 1.696188 -7.125000 0.000000 0.000000 83.502888 -1.688629 -20.277844 -10.635116 15.523521 -1.415497 1.889057 -0.505260 3.370754 7.125000 0.000000 0.000000 
0.786606 26.876427 -15.736814 0.737454 -3.040099 4.979562 -20.058146 -6.143511 -18.411221 3.521728 11.015826 34.172586 1.565110 2.884459 26.505826 0.001400 -0.238500 -0.655300 26.085732 -1.423749 -20.221226 -3.400869 -9.185402 28.394207 0.305835 -16.680009 21.339216 -0.478000 -4.433700 12.300100 0.961289 3.642717 -0.506589 0.894876 2.184957 -8.036436 5.989937 -4.238097 10.492052 3.888500 -2.201100 8.011900 -84.861692 0.670977 4.112731 10.096969 -18.007810 -1.482258 -1.612208 -1.996673 2.413209 -7.125000 0.000000 0.000000 83.718511 -2.383716 -19.776885 -10.654070 15.545340 -1.423148 1.860382 -0.477706 2.608915 7.125000 0.000000 0.000000 
0.778404 26.880728 -15.712508 0.887967 -2.578163 5.063091 -20.113647 -6.713164 -18.387935 3.394126 10.844490 33.538147 1.508786 3.292081 26.347172 0.000600 0.158700 0.436100 25.851932 -1.294324 -19.907456 -3.264436 -8.926560 27.577619 0.254041 -16.308186 21.444197 -0.389300 -4.006500 11.095100 0.948769 3.435664 -0.490415 0.904865 2.086037 -7.854848 5.991542 -4.357609 10.488102 3.843100 -2.240800 8.087800 -85.003068 0.821692 4.290285 9.755692 -17.378187 -1.354561 -1.656341 -1.899665 2.700356 -7.125000 0.000000 0.000000 83.865840 -2.813275 -18.967260 -10.679641 15.572439 -1.433416 1.838826 -0.474261 2.223074 7.125000 0.000000 0.000000 
0.768901 26.875527 -15.681600 1.046894 -2.302838 5.283612 -20.198627 -7.192964 -18.490429 3.272227 10.683781 32.942895 1.430362 3.638041 25.998612 0.003100 0.357600 0.982500 25.589516 -0.822498 -19.588662 -3.142278 -8.688417 26.816157 0.259548 -16.257487 21.426941 -0.390000 -4.010000 11.104900 0.931500 3.287387 -0.581516 0.975833 2.024344 -7.871013 5.900264 -4.372464 10.533057 3.747200 -2.235800 8.121800 -85.100116 1.537752 5.622357 9.769621 -17.403285 -1.342653 -1.649123 -2.004936 2.379941 -7.125000 0.000000 0.000000 84.059726 -3.711591 -17.217388 -10.891180 15.868721 -1.504408 1.822370 -0.411214 1.558704 7.125000 0.000000 0.000000 
